<svg width="73" height="17" viewBox="0 0 73 17" fill="none" xmlns="http://www.w3.org/2000/svg">
<path d="M2.46457 0.223502H6.64995L13.1373 11.0357L14.6487 0.223502H18.8341L16.5554 16.5H12.37L5.88263 5.68775L4.37124 16.5H0.185859L2.46457 0.223502ZM19.8499 4.68791L20.4777 0.223502H24.6631L24.5236 1.31635L19.8499 4.68791ZM19.7104 5.71101L24.3608 2.33945L22.3844 16.5H18.199L19.7104 5.71101ZM25.1799 0.223502H40.2938L37.9918 3.4788H34.3645L32.5508 16.5H28.3655L30.1791 3.4788H27.4819L25.1799 0.223502ZM40.7906 0.223502H50.2775C51.7656 0.223502 52.8817 0.580035 53.6258 1.2931C54.3854 1.99067 54.7652 2.97501 54.7652 4.24612C54.7652 5.22271 54.5947 6.10629 54.2536 6.89687C53.9126 7.67194 53.4398 8.3385 52.8352 8.89655C52.2307 9.4546 51.5176 9.88089 50.696 10.1754C49.8745 10.4699 48.9831 10.6172 48.022 10.6172H43.5111L42.6973 16.5H38.5119L40.7906 0.223502ZM43.9762 7.36191H48.3011C48.9986 7.36191 49.5179 7.16039 49.859 6.75735C50.2 6.35432 50.4093 5.88927 50.4868 5.36223C50.5178 5.16071 50.5255 4.95144 50.51 4.73442C50.4945 4.5174 50.4325 4.31588 50.324 4.12986C50.231 3.94384 50.0837 3.78883 49.8822 3.66482C49.6962 3.54081 49.4327 3.4788 49.0916 3.4788H44.511L43.9762 7.36191ZM50.4868 11.1985L54.0444 16.5H49.1847L45.6736 11.1985H50.4868ZM55.3748 4.40889C55.4678 3.77333 55.6461 3.19978 55.9096 2.68823C56.1886 2.17668 56.5374 1.74264 56.956 1.38611C57.3745 1.01408 57.855 0.727299 58.3976 0.52578C58.9401 0.324262 59.5214 0.223502 60.1415 0.223502H68.4425C69.0781 0.223502 69.6361 0.324262 70.1167 0.52578C70.5972 0.727299 70.9925 1.01408 71.3025 1.38611C71.6281 1.74264 71.8528 2.17668 71.9768 2.68823C72.1163 3.19978 72.1396 3.77333 72.0466 4.40889L70.9305 12.3146C70.8375 12.9347 70.6515 13.5082 70.3724 14.0353C70.1089 14.5468 69.7679 14.9886 69.3493 15.3606C68.9308 15.7172 68.4503 15.9962 67.9077 16.1977C67.3807 16.3992 66.7994 16.5 66.1638 16.5H57.8628C57.2427 16.5 56.6847 16.3992 56.1886 16.1977C55.7081 15.9962 55.3051 15.7172 54.9795 15.3606C54.6695 14.9886 54.4447 14.5468 54.3052 14.0353C54.1812 13.5082 54.1657 12.9347 54.2587 12.3146L55.3748 4.40889ZM58.6766 10.7335C58.5681 11.493 58.6766 12.1053 59.0021 12.5704C59.3432 13.0199 59.8547 13.2447 60.5368 13.2447H64.3501C65.0322 13.2447 65.6135 13.0199 66.094 12.5704C66.5746 12.1053 66.8691 11.493 66.9776 10.7335L67.6287 5.99003C67.7372 5.23046 67.6209 4.62591 67.2799 4.17637C66.9389 3.71132 66.4273 3.4788 65.7453 3.4788H61.9319C61.2498 3.4788 60.6685 3.71132 60.188 4.17637C59.723 4.62591 59.4362 5.23046 59.3277 5.99003L58.6766 10.7335Z" fill="#E0E600"/>
</svg>
